<svg width="74" height="74" viewBox="0 0 74 74" fill="none" xmlns="http://www.w3.org/2000/svg">
<g filter="url(#filter0_d_36040_4)">
<rect x="20" y="20" width="34" height="34" rx="17" fill="#FF6E4E"/>
</g>
<path d="M30.7458 35.8629H34.7258C35.0273 35.8629 35.3166 35.7431 35.5298 35.5298C35.7431 35.3166 35.8629 35.0273 35.8629 34.7258V30.7458C35.8629 30.4442 35.7431 30.155 35.5298 29.9418C35.3166 29.7285 35.0273 29.6087 34.7258 29.6087H30.7458C30.4442 29.6087 30.155 29.7285 29.9418 29.9418C29.7285 30.155 29.6087 30.4442 29.6087 30.7458V34.7258C29.6087 35.0273 29.7285 35.3166 29.9418 35.5298C30.155 35.7431 30.4442 35.8629 30.7458 35.8629ZM31.3144 31.3144H34.1572V34.1572H31.3144V31.3144Z" fill="white"/>
<path d="M30.7458 44.3913H34.7258C35.0273 44.3913 35.3166 44.2715 35.5298 44.0583C35.7431 43.845 35.8629 43.5558 35.8629 43.2542V39.2743C35.8629 38.9727 35.7431 38.6834 35.5298 38.4702C35.3166 38.2569 35.0273 38.1371 34.7258 38.1371H30.7458C30.4442 38.1371 30.155 38.2569 29.9418 38.4702C29.7285 38.6834 29.6087 38.9727 29.6087 39.2743V43.2542C29.6087 43.5558 29.7285 43.845 29.9418 44.0583C30.155 44.2715 30.4442 44.3913 30.7458 44.3913ZM31.3144 39.8428H34.1572V42.6856H31.3144V39.8428Z" fill="white"/>
<path d="M39.2743 35.8629H43.2542C43.5558 35.8629 43.845 35.7431 44.0583 35.5298C44.2715 35.3166 44.3913 35.0273 44.3913 34.7258V30.7458C44.3913 30.4442 44.2715 30.155 44.0583 29.9418C43.845 29.7285 43.5558 29.6087 43.2542 29.6087H39.2743C38.9727 29.6087 38.6835 29.7285 38.4702 29.9418C38.2569 30.155 38.1371 30.4442 38.1371 30.7458V34.7258C38.1371 35.0273 38.2569 35.3166 38.4702 35.5298C38.6835 35.7431 38.9727 35.8629 39.2743 35.8629ZM39.8428 31.3144H42.6856V34.1572H39.8428V31.3144Z" fill="white"/>
<path d="M42.1171 40.4114H40.4114V42.1171H42.1171V40.4114Z" fill="white"/>
<path d="M43.8228 39.1321C43.8228 39.019 43.7778 38.9106 43.6979 38.8306C43.6179 38.7506 43.5094 38.7057 43.3963 38.7057H42.1171V40.4114H43.8228V39.1321Z" fill="white"/>
<path d="M39.1321 38.7057C39.019 38.7057 38.9106 38.7506 38.8306 38.8306C38.7506 38.9106 38.7057 39.019 38.7057 39.1321V40.4114H40.4114V38.7057H39.1321Z" fill="white"/>
<path d="M43.3963 43.8228C43.5094 43.8228 43.6179 43.7778 43.6979 43.6979C43.7778 43.6179 43.8228 43.5094 43.8228 43.3963V42.1171H42.1171V43.8228H43.3963Z" fill="white"/>
<path d="M38.7057 43.3963C38.7057 43.5094 38.7506 43.6179 38.8306 43.6979C38.9106 43.7778 39.019 43.8228 39.1321 43.8228H40.4114V42.1171H38.7057V43.3963Z" fill="white"/>
<defs>
<filter id="filter0_d_36040_4" x="0" y="0" width="74" height="74" filterUnits="userSpaceOnUse" color-interpolation-filters="sRGB">
<feFlood flood-opacity="0" result="BackgroundImageFix"/>
<feColorMatrix in="SourceAlpha" type="matrix" values="0 0 0 0 0 0 0 0 0 0 0 0 0 0 0 0 0 0 127 0" result="hardAlpha"/>
<feOffset/>
<feGaussianBlur stdDeviation="10"/>
<feColorMatrix type="matrix" values="0 0 0 0 0.749948 0 0 0 0 0.771203 0 0 0 0 0.9625 0 0 0 0.15 0"/>
<feBlend mode="normal" in2="BackgroundImageFix" result="effect1_dropShadow_36040_4"/>
<feBlend mode="normal" in="SourceGraphic" in2="effect1_dropShadow_36040_4" result="shape"/>
</filter>
</defs>
</svg>
